<svg width="145" height="36" viewBox="0 0 145 36" fill="none" xmlns="http://www.w3.org/2000/svg">
<path fill-rule="evenodd" clip-rule="evenodd" d="M0 1.43894C0 1.21044 0.187518 1.0252 0.418833 1.0252H2.19786C2.42917 1.0252 2.61669 1.21044 2.61669 1.43894V31.091C2.61669 31.855 3.24367 32.4744 4.01708 32.4744H7.22223V1.43894C7.22223 1.21044 7.40975 1.0252 7.64107 1.0252H9.42009C9.65141 1.0252 9.83893 1.21044 9.83893 1.43894V35.0592H3.49438C1.56449 35.0592 0 33.5138 0 31.6074L0 1.43894Z" fill="#EDF0F3"/>
<path d="M16.1701 35.0593C14.2403 35.0593 12.6758 33.5138 12.6758 31.6074V0.939091H20.1942C20.4255 0.939091 20.6131 1.12433 20.6131 1.35283V3.11021C20.6131 3.33872 20.4255 3.52395 20.1942 3.52395H15.2925V14.3117H20.1943C20.4256 14.3117 20.6131 14.497 20.6131 14.7255V16.4829C20.6131 16.7114 20.4256 16.8966 20.1943 16.8966H15.2925V31.0911C15.2925 31.8551 15.9194 32.4744 16.6928 32.4744H20.1942C20.4255 32.4744 20.6131 32.6597 20.6131 32.8882V34.6455C20.6131 34.874 20.4255 35.0593 20.1942 35.0593H16.1701Z" fill="#EDF0F3"/>
<path d="M26.6435 35.0593C24.7136 35.0593 23.1491 33.5138 23.1491 31.6074V0.939087H30.6676C30.8989 0.939087 31.0864 1.12432 31.0864 1.35283V3.11021C31.0864 3.33871 30.8989 3.52395 30.6676 3.52395H25.7658V14.3117H30.6677C30.899 14.3117 31.0865 14.497 31.0865 14.7255V16.4828C31.0865 16.7113 30.899 16.8966 30.6677 16.8966H25.7658V31.0911C25.7658 31.8551 26.3928 32.4744 27.1662 32.4744H30.6676C30.8989 32.4744 31.0864 32.6597 31.0864 32.8882V34.6455C31.0864 34.874 30.8989 35.0593 30.6676 35.0593H26.6435Z" fill="#EDF0F3"/>
<path d="M39.5308 15.5179L36.2163 12.1485L36.2163 1.35404C36.2163 1.12554 36.0288 0.9403 35.7975 0.9403H34.0185C33.7872 0.9403 33.5996 1.12554 33.5996 1.35404V34.6468C33.5996 34.8753 33.7872 35.0605 34.0185 35.0605H35.7975C36.0288 35.0605 36.2163 34.8753 36.2163 34.6468V15.9382L39.5308 19.531V34.6468C39.5308 34.8753 39.7183 35.0605 39.9496 35.0605H41.7287C41.96 35.0605 42.1475 34.8753 42.1475 34.6468V19.7633C42.1475 18.637 41.6827 17.5594 40.8603 16.7792L39.567 15.5523L42.1475 13.0033V1.35432C42.1475 1.12582 41.9599 0.940582 41.7286 0.940582H39.9496C39.7183 0.940582 39.5308 1.12582 39.5308 1.35432V15.5179Z" fill="#EDF0F3"/>
<path d="M93.9931 15.7437C92.1656 15.7437 90.7949 15.2327 89.8812 14.2109C88.9674 13.1751 88.4754 11.7893 88.4051 10.0536C88.3911 9.67564 88.384 9.05974 88.384 8.20588C88.384 7.33802 88.3911 6.70812 88.4051 6.31618C88.4754 4.58046 88.9674 3.20168 89.8812 2.17985C90.7949 1.14402 92.1656 0.626099 93.9931 0.626099C95.2442 0.626099 96.2845 0.857061 97.1139 1.31899C97.9433 1.76691 98.5548 2.34082 98.9485 3.04071C99.3561 3.7266 99.5811 4.43349 99.6232 5.16137V5.20336C99.6232 5.31534 99.5811 5.40633 99.4967 5.47632C99.4124 5.54631 99.3069 5.5813 99.1804 5.5813H98.7587C98.5056 5.5813 98.351 5.43432 98.2948 5.14037C98.0277 3.95056 97.5427 3.1107 96.8398 2.62078C96.1369 2.13086 95.188 1.8859 93.9931 1.8859C92.6717 1.8859 91.6454 2.25684 90.9144 2.99872C90.1834 3.7406 89.7898 4.88141 89.7336 6.42117C89.7195 6.7991 89.7125 7.38001 89.7125 8.16388C89.7125 8.94776 89.7195 9.54266 89.7336 9.9486C89.7898 11.4883 90.1834 12.6292 90.9144 13.371C91.6454 14.1129 92.6717 14.4839 93.9931 14.4839C95.188 14.4839 96.1369 14.2389 96.8398 13.749C97.5427 13.2591 98.0277 12.4192 98.2948 11.2294C98.351 10.9354 98.5056 10.7885 98.7587 10.7885H99.1804C99.3069 10.7885 99.4124 10.8305 99.4967 10.9144C99.5951 10.9844 99.6373 11.0824 99.6232 11.2084C99.5811 11.9363 99.3561 12.6502 98.9485 13.35C98.5548 14.0359 97.9433 14.6098 97.1139 15.0718C96.2845 15.5197 95.2442 15.7437 93.9931 15.7437Z" fill="#EDF0F3"/>
<path d="M109.837 15.7437C106.224 15.7437 104.368 13.812 104.27 9.9486C104.256 9.52867 104.249 8.94076 104.249 8.18488C104.249 7.429 104.256 6.8411 104.27 6.42117C104.326 4.51747 104.846 3.0757 105.83 2.09586C106.814 1.11602 108.15 0.626099 109.837 0.626099C111.524 0.626099 112.859 1.11602 113.843 2.09586C114.827 3.0757 115.348 4.51747 115.404 6.42117C115.432 7.26103 115.446 7.84894 115.446 8.18488C115.446 8.52083 115.432 9.10873 115.404 9.9486C115.305 13.812 113.45 15.7437 109.837 15.7437ZM109.837 14.4839C111.102 14.4839 112.107 14.1059 112.852 13.35C113.611 12.5802 114.019 11.4114 114.075 9.84361C114.103 9.00375 114.118 8.45084 114.118 8.18488C114.118 7.91892 114.103 7.36601 114.075 6.52615C114.019 4.9584 113.611 3.79659 112.852 3.04071C112.093 2.27083 111.088 1.8859 109.837 1.8859C108.586 1.8859 107.581 2.27083 106.822 3.04071C106.062 3.79659 105.655 4.9584 105.598 6.52615C105.584 6.94608 105.577 7.49899 105.577 8.18488C105.577 8.87077 105.584 9.42368 105.598 9.84361C105.655 11.4114 106.055 12.5802 106.8 13.35C107.56 14.1059 108.572 14.4839 109.837 14.4839Z" fill="#EDF0F3"/>
<path d="M121.374 15.5337C121.233 15.5337 121.121 15.4917 121.036 15.4077C120.952 15.3237 120.91 15.2117 120.91 15.0718V1.31899C120.91 1.17901 120.952 1.06703 121.036 0.983041C121.121 0.885057 121.233 0.836065 121.374 0.836065H121.816C121.999 0.836065 122.147 0.920051 122.259 1.08802L130.04 12.9301V1.31899C130.04 1.17901 130.082 1.06703 130.167 0.983041C130.251 0.885057 130.364 0.836065 130.504 0.836065H130.884C131.038 0.836065 131.158 0.878058 131.242 0.962045C131.327 1.04603 131.369 1.16501 131.369 1.31899V15.0508C131.369 15.1908 131.327 15.3097 131.242 15.4077C131.158 15.4917 131.045 15.5337 130.905 15.5337H130.441C130.258 15.5337 130.111 15.4497 129.998 15.2817L122.238 3.48164V15.0718C122.238 15.2117 122.189 15.3237 122.091 15.4077C122.006 15.4917 121.894 15.5337 121.753 15.5337H121.374Z" fill="#EDF0F3"/>
<path d="M137.29 9.84361C137.149 9.84361 137.037 9.80162 136.953 9.71763C136.868 9.63365 136.826 9.52167 136.826 9.38169V9.08774C136.826 8.94776 136.868 8.83578 136.953 8.75179C137.037 8.6678 137.149 8.62581 137.29 8.62581H143.511C143.651 8.62581 143.764 8.6678 143.848 8.75179C143.932 8.83578 143.974 8.94776 143.974 9.08774V9.38169C143.974 9.52167 143.932 9.63365 143.848 9.71763C143.764 9.80162 143.651 9.84361 143.511 9.84361H137.29Z" fill="#EDF0F3"/>
<path d="M89.4595 34.8506C89.3189 34.8506 89.2064 34.8086 89.1221 34.7246C89.0377 34.6406 88.9955 34.5286 88.9955 34.3887V20.6359C88.9955 20.4959 89.0377 20.3839 89.1221 20.2999C89.2064 20.2019 89.3189 20.153 89.4595 20.153H89.9023C90.085 20.153 90.2326 20.2369 90.3451 20.4049L98.1261 32.247V20.6359C98.1261 20.4959 98.1682 20.3839 98.2526 20.2999C98.3369 20.2019 98.4494 20.153 98.59 20.153H98.9695C99.1242 20.153 99.2437 20.1949 99.328 20.2789C99.4124 20.3629 99.4545 20.4819 99.4545 20.6359V34.3677C99.4545 34.5076 99.4124 34.6266 99.328 34.7246C99.2437 34.8086 99.1312 34.8506 98.9906 34.8506H98.5267C98.344 34.8506 98.1964 34.7666 98.0839 34.5986L90.324 22.7985V34.3887C90.324 34.5286 90.2748 34.6406 90.1764 34.7246C90.0921 34.8086 89.9796 34.8506 89.839 34.8506H89.4595Z" fill="#EDF0F3"/>
<path d="M105.983 34.8506C105.842 34.8506 105.73 34.8086 105.645 34.7246C105.561 34.6406 105.519 34.5286 105.519 34.3887V20.6359C105.519 20.4959 105.561 20.3839 105.645 20.2999C105.73 20.2019 105.842 20.153 105.983 20.153H114.207C114.361 20.153 114.481 20.1949 114.565 20.2789C114.649 20.3629 114.692 20.4819 114.692 20.6359V20.9508C114.692 21.0908 114.642 21.2028 114.544 21.2868C114.46 21.3708 114.347 21.4127 114.207 21.4127H106.847V26.7669H113.743C113.897 26.7669 114.017 26.8089 114.101 26.8929C114.186 26.9769 114.228 27.0958 114.228 27.2498V27.5648C114.228 27.7047 114.179 27.8167 114.08 27.9007C113.996 27.9847 113.883 28.0267 113.743 28.0267H106.847V33.5908H114.375C114.53 33.5908 114.649 33.6328 114.734 33.7168C114.818 33.8008 114.86 33.9197 114.86 34.0737V34.3887C114.86 34.5286 114.811 34.6406 114.713 34.7246C114.628 34.8086 114.516 34.8506 114.375 34.8506H105.983Z" fill="#EDF0F3"/>
<path d="M124.96 35.0606C123.132 35.0606 121.762 34.5496 120.848 33.5278C119.934 32.492 119.442 31.1062 119.372 29.3705C119.358 28.9925 119.351 28.3766 119.351 27.5228C119.351 26.6549 119.358 26.025 119.372 25.6331C119.442 23.8974 119.934 22.5186 120.848 21.4967C121.762 20.4609 123.132 19.943 124.96 19.943C126.211 19.943 127.251 20.174 128.081 20.6359C128.91 21.0838 129.522 21.6577 129.915 22.3576C130.323 23.0435 130.548 23.7504 130.59 24.4783V24.5202C130.59 24.6322 130.548 24.7232 130.464 24.7932C130.379 24.8632 130.274 24.8982 130.147 24.8982H129.726C129.473 24.8982 129.318 24.7512 129.262 24.4573C128.995 23.2675 128.51 22.4276 127.807 21.9377C127.104 21.4477 126.155 21.2028 124.96 21.2028C123.639 21.2028 122.612 21.5737 121.881 22.3156C121.15 23.0575 120.757 24.1983 120.701 25.7381C120.686 26.116 120.679 26.6969 120.679 27.4808C120.679 28.2646 120.686 28.8595 120.701 29.2655C120.757 30.8052 121.15 31.9461 121.881 32.6879C122.612 33.4298 123.639 33.8008 124.96 33.8008C126.155 33.8008 127.104 33.5558 127.807 33.0659C128.51 32.576 128.995 31.7361 129.262 30.5463C129.318 30.2523 129.473 30.1053 129.726 30.1053H130.147C130.274 30.1053 130.379 30.1473 130.464 30.2313C130.562 30.3013 130.604 30.3993 130.59 30.5253C130.548 31.2532 130.323 31.9671 129.915 32.6669C129.522 33.3528 128.91 33.9267 128.081 34.3887C127.251 34.8366 126.211 35.0606 124.96 35.0606Z" fill="#EDF0F3"/>
<path d="M139.496 34.8506C139.356 34.8506 139.243 34.8086 139.159 34.7246C139.075 34.6406 139.033 34.5286 139.033 34.3887V21.4127H134.857C134.717 21.4127 134.604 21.3708 134.52 21.2868C134.436 21.2028 134.393 21.0908 134.393 20.9508V20.6359C134.393 20.4959 134.436 20.3839 134.52 20.2999C134.604 20.2019 134.717 20.153 134.857 20.153H144.515C144.67 20.153 144.789 20.1949 144.874 20.2789C144.958 20.3629 145 20.4819 145 20.6359V20.9508C145 21.0908 144.951 21.2028 144.852 21.2868C144.768 21.3708 144.656 21.4127 144.515 21.4127H140.361V34.3887C140.361 34.5286 140.312 34.6406 140.213 34.7246C140.129 34.8086 140.017 34.8506 139.876 34.8506H139.496Z" fill="#EDF0F3"/>
<path fill-rule="evenodd" clip-rule="evenodd" d="M55.2573 3.47785L58.2858 3.6907e-07L58.7435 0.525635L55.715 4.00348L55.2573 3.47785Z" fill="#EDF0F3"/>
<path fill-rule="evenodd" clip-rule="evenodd" d="M55.2577 8.34684L62.5262 3.6907e-07L62.9839 0.525635L55.7155 8.87247L55.2577 8.34684Z" fill="#EDF0F3"/>
<path fill-rule="evenodd" clip-rule="evenodd" d="M55.2578 13.2158L66.7662 3.6907e-07L67.2239 0.525635L55.7155 13.7415L55.2578 13.2158Z" fill="#EDF0F3"/>
<path fill-rule="evenodd" clip-rule="evenodd" d="M55.2574 18.0848L71.0057 3.6907e-07L71.4634 0.525635L55.7151 18.6104L55.2574 18.0848Z" fill="#EDF0F3"/>
<path fill-rule="evenodd" clip-rule="evenodd" d="M55.2574 22.9536L73.4285 2.08655L73.8862 2.61218L55.7152 23.4793L55.2574 22.9536Z" fill="#EDF0F3"/>
<path fill-rule="evenodd" clip-rule="evenodd" d="M55.2574 27.8228L73.4285 6.95569L73.8862 7.48132L55.7152 28.3484L55.2574 27.8228Z" fill="#EDF0F3"/>
<path fill-rule="evenodd" clip-rule="evenodd" d="M55.2574 32.6918L73.4285 11.8247L73.8862 12.3503L55.7152 33.2174L55.2574 32.6918Z" fill="#EDF0F3"/>
<path fill-rule="evenodd" clip-rule="evenodd" d="M57.0745 35.4741L73.4285 16.6937L73.8862 17.2194L57.5323 35.9997L57.0745 35.4741Z" fill="#EDF0F3"/>
<path fill-rule="evenodd" clip-rule="evenodd" d="M61.3145 35.4743L73.4285 21.5629L73.8862 22.0885L61.7722 35.9999L61.3145 35.4743Z" fill="#EDF0F3"/>
<path fill-rule="evenodd" clip-rule="evenodd" d="M65.5544 35.4739L73.4285 26.4315L73.8862 26.9572L66.0121 35.9996L65.5544 35.4739Z" fill="#EDF0F3"/>
<path fill-rule="evenodd" clip-rule="evenodd" d="M69.7943 35.4743L73.4285 31.3009L73.8862 31.8265L70.252 36L69.7943 35.4743Z" fill="#EDF0F3"/>
</svg>
